<?xml version="1.0" encoding="UTF-8"?>
<svg width="250px" height="166px" viewBox="0 0 250 166" version="1.1" xmlns="http://www.w3.org/2000/svg" xmlns:xlink="http://www.w3.org/1999/xlink">
    <title>Module IA</title>
    <g id="Module-IA" stroke="none" stroke-width="1" fill="none" fill-rule="evenodd">
        <g id="undraw_artificial_intelligence_re_enpp" transform="translate(2.000000, 34.000000)" fill-rule="nonzero">
            <circle id="Oval" fill="#F2F2F2" cx="229.839589" cy="53.1812554" r="11.2078565"></circle>
            <circle id="Oval" fill="#E6E6E6" cx="229.839589" cy="53.1812554" r="2.94943592"></circle>
            <path d="M229.300704,53.2442465 C230.543101,54.2578172 230.92169,55.8552553 230.690531,57.3977277 C230.406541,59.0895901 229.528757,60.6248121 228.214775,61.7277622 C226.737331,63.0409484 224.935267,63.9282921 223.196463,64.8369218 C221.598744,65.6523143 220.063306,66.5843752 218.602631,67.625528 C213.010315,71.6901161 208.785401,77.4775641 206.367386,83.9359086 C203.953449,90.3833578 203.305768,97.7014215 205.140043,104.383549 C206.047584,107.689618 207.883517,111.25664 211.303809,112.500662 C214.030176,113.492289 217.752456,112.853511 219.140664,110.043643 C220.631875,107.025287 218.551367,103.632389 215.871418,102.133946 C212.397501,100.191565 208.247908,101.610905 205.123343,103.577043 C201.683398,105.741634 198.918119,108.84785 195.326691,110.787906 C193.710099,111.688746 191.911206,112.21352 190.063815,112.323194 C188.367307,112.389962 186.673877,112.12834 185.076614,111.55271 C181.762617,110.3453 178.909688,108.130824 176.917985,105.219891 C174.636814,101.903863 173.615717,97.838995 173.429501,93.8571562 C173.012858,84.9480341 176.532254,76.6133086 179.355974,68.3511954 C180.873601,64.048801 182.010475,59.6214446 182.753497,55.1201438 C183.460095,50.5960153 183.711594,46.0124693 183.504225,41.4381914 C183.317329,37.3934323 182.918326,33.1638438 181.133144,29.4697137 C179.563404,26.2213996 176.694568,23.5628312 173.067481,22.8925689 C171.432567,22.5716816 169.738354,22.7662932 168.218783,23.4495316 C167.701404,23.6855513 168.150583,24.4483934 168.665374,24.2135564 C171.875192,22.7492942 175.669002,24.1739927 178.0398,26.5382457 C180.808285,29.2990859 181.824946,33.376156 182.27639,37.1381379 C183.290813,46.0537144 182.491399,55.0823635 179.926235,63.6809966 C177.464409,72.0432845 173.592027,80.0565598 172.698466,88.8177854 C172.290727,92.8156072 172.500193,96.9485485 173.778053,100.782107 C174.874347,104.196897 176.930123,107.224091 179.699996,109.502348 C182.307928,111.610681 185.516227,113.047133 188.893683,113.207149 C192.684994,113.386769 196.009692,111.696575 198.951132,109.448152 C202.101466,107.040055 204.999989,104.068776 208.81611,102.718518 C210.555871,102.102944 212.537414,101.815784 214.323698,102.408238 C215.856119,102.931833 217.155991,103.976967 217.996424,105.361213 C218.772253,106.651252 219.058434,108.264186 218.350451,109.650017 C217.684805,110.952983 216.385537,111.706641 214.979036,111.964566 C213.489685,112.228025 211.955056,111.967273 210.636305,111.226682 C209.095502,110.3467 207.968053,108.869838 207.178185,107.30951 C205.603075,104.198002 205.073843,100.494121 204.993503,97.0405591 C204.923241,93.6670863 205.355491,90.3019427 206.276044,87.0557393 C208.107842,80.4891386 211.805374,74.5949967 216.920311,70.0879855 C218.208908,68.9654377 219.587409,67.9504766 221.04195,67.0533108 C222.628747,66.0752779 224.322487,65.2937924 225.940137,64.370964 C227.531886,63.4629153 229.100594,62.3779683 230.196719,60.8837103 C231.131048,59.6030679 231.635674,58.0593622 231.638185,56.4741148 C231.671868,54.997816 231.044022,53.5837141 229.926374,52.6185945 C229.488733,52.2615594 228.859082,52.8839818 229.300704,53.2442642 L229.300704,53.2442465 Z" id="Path" fill="#CCCCCC"></path>
            <path d="M124.66858,104.796384 C128.58755,107.329582 133.121021,108.750681 137.784786,108.907898 C137.701504,109.105346 137.607958,109.298305 137.504531,109.485987 C136.961686,110.488113 136.194512,111.351174 135.262933,112.007755 C133.014509,113.590158 130.071846,113.788316 127.631566,112.521649 C125.191286,111.254981 123.659896,108.734445 123.659896,105.985007 L123.659896,104.796384 L124.66858,104.796384 Z" id="Path" fill="#3F3D56"></path>
            <path d="M152.177975,105.144414 L152.177975,105.985004 C152.179244,109.351553 149.896702,112.290065 146.63447,113.12163 C143.372238,113.953195 139.961535,112.46593 138.351054,109.50958 C138.243144,109.317346 138.145649,109.119448 138.058992,108.916743 C138.274301,108.922642 138.486717,108.925591 138.70202,108.925591 C143.456619,108.931113 148.120259,107.622556 152.177975,105.144414 L152.177975,105.144414 Z" id="Path" fill="#3F3D56"></path>
            <path d="M162.099918,16.2543118 C161.878711,16.2218681 161.65448,16.201222 161.430396,16.1864748 C163.977539,22.0567043 164.154044,28.6849166 161.922929,34.6823875 C162.147162,34.6558425 162.36837,34.6204493 162.589578,34.5791572 C167.050261,33.7148337 170.231553,29.7512644 170.110186,25.2092363 C169.98882,20.6672082 166.6004,16.8791865 162.099924,16.2543118 L162.099918,16.2543118 Z" id="Path" fill="#3F3D56"></path>
            <path d="M115.973655,16.1864807 C115.749562,16.2012279 115.525334,16.221874 115.304127,16.2543177 C110.803645,16.8791854 107.415217,20.6672097 107.293851,25.209243 C107.172485,29.7512763 110.353786,33.7148477 114.814476,34.5791631 C115.035684,34.6204552 115.256892,34.6558484 115.481122,34.6823934 C113.250007,28.6849225 113.426511,22.0567102 115.973655,16.1864807 L115.973655,16.1864807 Z" id="Path" fill="#3F3D56"></path>
            <path d="M162.099918,16.2543118 C157.065994,4.22892368 143.735904,-2.02220649 131.271505,1.79736382 C118.807106,5.61693414 111.267908,18.2632156 113.835651,31.0443364 C116.403393,43.8254573 128.241793,52.5787561 141.21424,51.2880334 C154.186687,49.9973107 164.068208,39.0829399 164.067168,26.0464391 C164.065975,22.6843645 163.397299,19.3559809 162.099918,16.2543118 L162.099918,16.2543118 Z M161.922923,34.6823875 C157.450815,46.7039047 144.541269,53.3228443 132.169727,49.9373467 C119.798186,46.5518491 112.057607,34.2819603 114.329675,21.6583978 C116.601744,9.03483537 128.134778,0.233933679 140.910363,1.37457519 C153.685948,2.5152167 163.477275,13.2200356 163.477275,26.0464391 C163.476346,28.9945768 162.949999,31.9189538 161.922923,34.6823993 L161.922923,34.6823875 Z" id="Shape" fill="#3F3D56"></path>
            <path d="M151.679538,20.295045 L125.724502,20.295045 C122.873877,20.295045 120.562989,22.605933 120.562989,25.4565578 C120.562989,28.3071826 122.873877,30.6180707 125.724502,30.6180707 L151.679538,30.6180707 C154.530162,30.6180707 156.84105,28.3071826 156.84105,25.4565578 C156.84105,22.605933 154.530162,20.295045 151.679538,20.295045 L151.679538,20.295045 Z" id="Path" fill="#3F3D56"></path>
            <path d="M138.70202,56.4256349 C124.280262,56.4322105 112.502308,67.9526058 112.176915,82.3706939 C111.851521,96.7887819 123.097753,108.828797 137.504531,109.485987 C137.784786,109.500734 138.06792,109.509583 138.351054,109.509583 C138.469002,109.515481 138.58406,109.515481 138.70202,109.515481 C153.362376,109.515481 165.246943,97.6309145 165.246943,82.9705582 C165.246943,68.3102019 153.362376,56.4256349 138.70202,56.4256349 L138.70202,56.4256349 Z M152.177975,105.144417 C148.120259,107.622559 143.456619,108.931116 138.70202,108.925612 C138.486711,108.925612 138.274295,108.922645 138.058992,108.916746 C137.967542,108.916746 137.87614,108.913797 137.784786,108.907898 C124.901553,108.460093 114.296788,98.6297616 112.87519,85.8173736 C111.453593,73.0049857 119.645505,61.0890702 132.117222,57.8280097 C144.588938,54.5669492 157.565057,60.9479223 162.596903,72.8163151 C167.628749,84.6847079 163.193098,98.447755 152.177975,105.144417 L152.177975,105.144417 Z" id="Shape" fill="#3F3D56"></path>
            <path d="M157.332648,76.4326881 L145.731484,76.4326881 C144.048231,76.4326881 142.683684,75.0681418 142.683684,73.3848885 C142.683684,71.7016353 144.048231,70.3370889 145.731484,70.3370889 L157.332648,70.3370889 C159.015901,70.3370889 160.380447,71.7016353 160.380447,73.3848885 C160.380447,75.0681418 159.015901,76.4326881 157.332648,76.4326881 Z" id="Path" fill="#3F3D56"></path>
            <circle id="Oval" fill="#F2F2F2" cx="146.504917" cy="73.3848915" r="1.54681397"></circle>
            <circle id="Oval" fill="#F2F2F2" cx="151.532066" cy="73.3848915" r="1.54681397"></circle>
            <circle id="Oval" fill="#397ED1" cx="156.559217" cy="73.3848915" r="1.54681397"></circle>
            <path d="M48.5552006,112.579249 C51.2074986,110.338079 52.8185483,106.797685 52.3960504,103.35109 C51.9735526,99.9044938 49.3567393,96.7360092 45.9623515,96.0041096 C42.5679637,95.2722101 38.6985957,97.2982277 37.6676086,100.61404 C37.1002079,94.2212847 36.4463799,87.5606798 33.0475827,82.1166523 C29.9700557,77.1872187 24.6397231,73.6600296 18.8628458,73.0290066 C13.0859685,72.3979837 7.00365948,74.7812665 3.40083503,79.3408791 C-0.20198943,83.9004918 -1.08413032,90.529234 1.43919469,95.7640491 C3.29804129,99.620357 6.72269032,102.49027 10.3108708,104.825091 C21.7584044,112.27398 35.9590594,114.79073 49.4711922,112.8022 L48.5552006,112.579249 Z" id="Path" fill="#F2F2F2"></path>
            <path d="M9.11348833,74.9133718 C13.8801247,78.7958628 18.2530134,83.1381303 22.1689039,87.8773666 C26.0854127,92.6117374 29.5334753,97.7148306 32.4646591,103.114967 C34.1030576,106.144197 35.5748697,109.260608 36.8735261,112.450291 C37.1383058,113.09914 36.0846877,113.381581 35.8228515,112.739949 C33.5226166,107.116552 30.6767921,101.732126 27.3261843,96.6638807 C23.9918437,91.613998 20.1755078,86.8994662 15.9307909,82.5865181 C13.5299596,80.1482933 10.996881,77.8439199 8.34302488,75.6838323 C7.79906041,75.240886 8.574007,74.4740798 9.11348538,74.9133718 L9.11348833,74.9133718 Z" id="Path" fill="#FFFFFF"></path>
            <circle id="Oval" fill="#2F2E41" cx="47.65595" cy="10.3230257" r="9.14325135"></circle>
            <path d="M81.7564728,43.8024503 C81.581241,44.0659551 81.3676454,44.3018177 81.1227511,44.5022365 C80.4092667,45.090488 79.478709,45.3464109 78.5647553,45.2057391 C77.6508016,45.0650673 76.8402715,44.5411636 76.3367014,43.7655883 C76.2790465,43.6762429 76.2261504,43.583915 76.1782341,43.4889902 L61.7703252,42.098921 C59.4353087,41.8647154 57.5305475,40.1262788 57.0845564,37.8223156 L56.2667574,33.5111016 L61.8896771,32.6363431 L62.8987234,36.0896902 L76.9462672,39.5402736 C77.0550577,39.4447971 77.1704143,39.3570728 77.2914869,39.2777472 C78.5832382,38.4394421 80.2862758,38.6244265 81.3679111,39.7205296 C82.4495464,40.8166326 82.6118873,42.5219777 81.7564934,43.8024769 L81.7564728,43.8024503 Z" id="Path" fill="#FFB8B8"></path>
            <path d="M63.2440905,35.5684275 L56.9629718,37.2651849 C56.2554345,37.4554629 55.5273927,37.0371057 55.3355232,36.3299984 L53.1355389,28.1860661 C52.6474242,26.3793282 53.6021866,24.4956447 55.3479321,23.8211594 C57.0936777,23.1466742 59.0669235,23.8990942 59.9203741,25.5646812 L64.0792115,33.6818828 C64.2618833,34.0383027 64.2738248,34.4581557 64.1117065,34.8243822 C63.9495882,35.1906087 63.6307512,35.4640352 63.2440905,35.5684275 L63.2440905,35.5684275 Z" id="Path" fill="#2F2E41"></path>
            <polygon id="Path" fill="#FFB8B8" points="59.6057401 110.348131 63.2214536 110.348131 64.9418596 96.4008383 59.6048553 96.4011332"></polygon>
            <path d="M58.8308102,109.31487 L70.1952021,109.31487 L70.1952021,113.705656 L63.2215942,113.705656 C60.7966311,113.705656 58.8308102,111.739835 58.8308102,109.31487 L58.8308102,109.31487 L58.8308102,109.31487 Z" id="Path" fill="#2F2E41" transform="translate(64.513006, 111.510263) rotate(179.997380) translate(-64.513006, -111.510263) "></path>
            <polygon id="Path" fill="#FFB8B8" points="27.3772538 106.824145 30.7602568 108.101251 37.2967967 95.6611197 32.3039916 93.7761352"></polygon>
            <path d="M25.8755739,107.449506 L37.2399658,107.449506 L37.2399658,111.840293 L30.2663578,111.840293 C27.8413948,111.840293 25.8755739,109.874472 25.8755739,107.449506 L25.8755739,107.449506 L25.8755739,107.449506 Z" id="Path" fill="#2F2E41" transform="translate(31.557770, 109.644899) rotate(-159.314820) translate(-31.557770, -109.644899) "></path>
            <path d="M59.4914966,107.108591 C58.9164718,107.108591 58.4072279,106.737233 58.230424,106.190063 L49.0079656,77.7089946 C48.9520219,77.5362381 48.7962175,77.4151915 48.6149933,77.403689 C48.4337692,77.3921866 48.2639109,77.4925632 48.1865742,77.6568604 L35.405347,104.851008 C35.1188311,105.459488 34.422767,105.757841 33.7845258,105.545738 L28.7507619,103.867669 C28.0873271,103.645144 27.7098314,102.94656 27.8872437,102.269664 L35.7163562,72.6140092 C36.5355792,69.4726658 37.1273356,66.2763643 37.4870265,63.0499441 C38.0360663,57.7369462 40.526974,52.8135866 44.4821417,49.2238734 C46.2090856,47.6416612 47.3317068,45.5078741 47.6574661,43.1884751 L47.6785663,43.0401391 L59.1441357,44.8504115 L66.406691,104.113047 C66.4842787,104.768338 66.0708136,105.381799 65.4342974,105.555793 L59.838076,107.062483 C59.7251022,107.093137 59.6085555,107.108591 59.4914966,107.108591 L59.4914966,107.108591 Z" id="Path" fill="#2F2E41"></path>
            <circle id="Oval" fill="#FFB8B8" cx="51.2881686" cy="12.1786161" r="7.24411841"></circle>
            <path d="M58.4316139,46.1140282 C58.4089327,46.1140282 58.3862486,46.1134366 58.3633521,46.1122981 L46.9974472,45.5440097 C46.3415985,45.5144073 45.8072086,45.007271 45.743347,44.353868 L44.190643,29.214965 C43.9598419,26.9640137 44.8581155,24.7447443 46.5896233,23.2880591 C48.3211311,21.8313739 50.6613836,21.3261315 52.8396338,21.9387302 L52.8397046,21.9387302 C53.7285183,22.1821648 54.5568083,22.6082531 55.2716944,23.1897924 C63.2670696,29.7558886 60.6890502,41.6527156 59.7084483,45.1424971 C59.5504578,45.7171101 59.0275503,46.1149847 58.4316139,46.1140282 L58.4316139,46.1140282 Z" id="Path" fill="#397ED1"></path>
            <path d="M48.5436595,56.2795079 C48.2272091,56.2795079 47.9125219,56.232389 47.6100067,56.1395161 C46.7250275,55.8713434 45.996491,55.2383549 45.6073448,54.3995045 C45.2181986,53.5606541 45.2054093,52.5956275 45.5721883,51.7467589 C45.6146362,51.6492657 45.6622041,51.5540826 45.7146933,51.4616075 L38.8910966,38.6960801 C37.7926543,36.6222924 38.1849164,34.0734826 39.8560724,32.4259363 L42.9924406,29.3569686 L46.8354199,33.5538654 L44.5192279,36.3068689 L49.4277057,49.9137317 C49.5674568,49.9514231 49.7043912,49.9988731 49.8375003,50.0557323 C51.2509724,50.6668411 52.0403145,52.1871923 51.7268873,53.6948796 C51.4134602,55.2025668 50.0835839,56.2823621 48.5436654,56.2795079 L48.5436595,56.2795079 Z" id="Path" fill="#FFB8B8"></path>
            <path d="M45.1445083,36.3056921 L40.2525739,32.0161357 C39.7022324,31.5324636 39.6472609,30.6945825 40.1296916,30.1431525 L45.6914252,23.8003906 C46.9252763,22.393225 49.0224159,22.1447152 50.5509735,23.224537 C52.0795311,24.3043588 52.5461346,26.3639784 51.6321996,27.9971429 L47.1777845,35.9559834 C46.9822261,36.3055008 46.6392828,36.5480096 46.2445715,36.6158954 C45.8498601,36.6837811 45.4456016,36.5697823 45.1445083,36.3056833 L45.1445083,36.3056921 Z" id="Path" fill="#2F2E41"></path>
            <path d="M46.6265792,19.2153715 C47.2875213,19.4497278 48.0978257,19.6563564 48.6179292,19.1702923 C49.1256835,18.6957694 49.0331774,17.828004 48.7340633,17.1887167 C48.4349492,16.5494295 47.9710442,15.9805305 47.8288224,15.2847054 C47.6249721,14.2874687 48.1520186,13.2514381 48.9043843,12.6012762 C49.65675,11.9511143 50.6037903,11.6095844 51.5283087,11.2809406 L56.5993181,9.47831022 C57.854545,9.03210775 59.207171,8.5079458 59.9095969,7.33371637 C60.9259725,5.63466137 59.9968117,3.20596311 58.329643,2.21453087 C56.6624744,1.22309863 54.5566391,1.40780116 52.7579403,2.10492983 C51.7630956,2.49049779 50.8167484,3.02180328 49.7879233,3.29322217 C47.7574519,3.82888692 45.4487456,3.34834123 43.6644548,4.49319722 C42.1112347,5.48978802 41.3908114,7.52326187 41.4431226,9.42592823 C41.4954338,11.3285946 42.1959838,13.1405953 42.9349207,14.880674 C43.3745371,15.9159054 43.8441551,16.9630642 44.5887756,17.7864435 C45.3333961,18.6098228 46.4094299,19.1858181 47.4842811,19.0343145 L46.6265792,19.2153715 Z" id="Path" fill="#2F2E41"></path>
            <circle id="Oval" fill="#2F2E41" cx="39.9874167" cy="5.89887184" r="5.89887184"></circle>
            <path d="M87.8307328,39.9502216 L87.7260544,39.9358342 L88.1202583,37.0681832 C88.2462604,36.1515149 87.6053045,35.3062614 86.6886375,35.1802493 L80.6129263,34.3450516 C79.6962576,34.2190479 78.851003,34.8600046 78.7249924,35.7766724 L76.5623333,51.5090993 C76.4363295,52.4257681 77.0772862,53.2710226 77.9939541,53.3970332 L84.0696623,54.2322309 C84.9863312,54.3582312 85.831584,53.7172744 85.9575962,52.8006071 L87.4454215,41.9770798 L87.5500999,41.9914701 L87.8307328,39.9502216 Z" id="a5b0fbf6-85a2-48e8-ad40-c81376cd9893-50" fill="#3F3D56"></path>
            <path d="M86.4976497,36.0215434 L85.7412404,35.917564 C85.7880793,36.1004833 85.7407828,36.294717 85.6150912,36.4356246 C85.4893995,36.5765323 85.3018084,36.6456211 85.1147477,36.6198985 L81.7947211,36.1635116 C81.6076706,36.1377878 81.4456981,36.0206388 81.3627021,35.8510473 C81.2797061,35.6814558 81.2865777,35.4816765 81.3810302,35.3181885 L80.6744958,35.2210636 C80.3609324,35.1779585 80.0430884,35.261182 79.7908862,35.4524257 C79.5386841,35.6436693 79.3727831,35.9272674 79.3296799,36.2408311 L77.2698469,51.2252131 C77.1800887,51.8781755 77.6366552,52.4802697 78.2896173,52.5700291 L84.1127712,53.370506 C84.7657326,53.4602643 85.3678263,53.0036995 85.4575872,52.3507385 L85.4575872,52.3507385 L87.5174202,37.3663211 C87.6071658,36.7133668 87.1506023,36.111287 86.4976497,36.0215287 L86.4976497,36.0215434 Z" id="a5d1dbd7-b3f0-4599-af89-34309e57a462-51" fill="#FFFFFF"></path>
            <circle id="Oval" fill="#397ED1" cx="82.3677935" cy="45.2177785" r="3.24437951"></circle>
            <path d="M82.0462018,46.4554338 C81.973207,46.4555717 81.9021466,46.4319691 81.8437407,46.3881854 L81.8401217,46.385469 L81.077669,45.8017078 C80.9810514,45.7282945 80.9310829,45.6088084 80.9466745,45.4884698 C80.962266,45.3681313 81.0410355,45.265325 81.1531721,45.2189586 C81.2653087,45.1725923 81.3936809,45.1897496 81.4897052,45.2639371 L81.9835617,45.6426211 L83.1506269,44.1205971 C83.2052915,44.0493028 83.2860393,44.0026446 83.3751059,43.9908873 C83.4641725,43.9791299 83.5542617,44.0032366 83.6255539,44.0579039 L83.6182983,44.0677551 L83.6257427,44.0580485 C83.7740065,44.1719981 83.8020525,44.3844592 83.6884359,44.5329784 L82.3156888,46.3232418 C82.2513357,46.4068537 82.151711,46.4557224 82.0462018,46.4554338 L82.0462018,46.4554338 Z" id="Path" fill="#FFFFFF"></path>
            <path d="M249.648815,113.93317 L2.10442817,113.93317 C1.91087143,113.932609 1.75425952,113.775543 1.75425952,113.581985 C1.75425952,113.388428 1.91087143,113.231361 2.10442817,113.2308 L249.648815,113.2308 C249.842769,113.2308 250,113.388031 250,113.581985 C250,113.775939 249.842769,113.93317 249.648815,113.93317 Z" id="Path" fill="#CCCCCC"></path>
        </g>
    </g>
</svg>